<?xml version="1.0" standalone="yes"?>

<svg version="1.1" viewBox="0.0 0.0 909.1207349081365 689.2808398950132" fill="none" stroke="none" stroke-linecap="square" stroke-miterlimit="10" xmlns="http://www.w3.org/2000/svg" xmlns:xlink="http://www.w3.org/1999/xlink"><clipPath id="p.0"><path d="m0 0l909.1207 0l0 689.2808l-909.1207 0l0 -689.2808z" clip-rule="nonzero"></path></clipPath><g clip-path="url(#p.0)"><path fill="#000000" fill-opacity="0.0" d="m0 0l909.1207 0l0 689.2808l-909.1207 0z" fill-rule="evenodd"></path><path fill="#000000" fill-opacity="0.0" d="m37.2137 93.201836l0 0c-2.804596 -18.591621 6.4034576 -36.996204 23.716846 -47.404c17.313389 -10.407795 39.69572 -10.9935 57.64935 -1.5085831l0 0c6.3597183 -10.80994 17.999863 -18.27346 31.39952 -20.132988c13.399658 -1.8595257 26.98497 2.1033478 36.646667 10.68993l0 0c5.4176636 -9.800987 16.055344 -16.386 28.138245 -17.41833c12.082886 -1.0323315 23.90097 3.634119 31.26056 12.343451l0 0c9.787811 -10.389021 25.360458 -14.763231 39.97957 -11.229885c14.61911 3.533348 25.658966 14.33963 28.34256 27.742908l0 0c11.991699 2.9505272 21.98056 10.451157 27.385742 20.563965c5.405182 10.112808 5.696472 21.845757 0.798584 32.16742l0 0c11.80835 13.863121 14.570618 32.335564 7.2559814 48.52375c-7.314636 16.188171 -23.607239 27.659988 -42.7977 30.134369c-0.1352539 15.193192 -9.372559 29.134277 -24.151398 36.449753c-14.77887 7.3154755 -32.79152 6.8630066 -47.095123 -1.1829987c-6.092575 18.196472 -23.24112 31.58525 -44.03685 34.381912c-20.79573 2.7966614 -41.51059 -5.500168 -53.194992 -21.305954c-14.322639 7.7907257 -31.508614 10.034988 -47.681114 6.2265167c-16.1725 -3.8084564 -29.96923 -13.348831 -38.277935 -26.468994l0 0c-14.635937 1.5449371 -28.786863 -5.295166 -35.429726 -17.125595c-6.642864 -11.830429 -4.363559 -26.132751 5.706705 -35.808792l0 0c-13.055634 -6.9314423 -19.717405 -20.685745 -16.511461 -34.09057c3.205943 -13.404823 15.553123 -23.422585 30.602968 -24.829414z" fill-rule="evenodd"></path><path fill="#000000" fill-opacity="0.0" d="m22.832886 152.83838l0 0c6.1609917 3.2709656 13.278385 4.7547607 20.39655 4.252136m9.323265 48.683426c3.0610733 -0.32312012 6.0615044 -1.00737 8.92392 -2.0350952m77.03084 22.276733c-2.152954 -2.9123688 -3.9555206 -6.024475 -5.3769836 -9.28331m102.612564 -3.7931976l0 0c1.1107635 -3.3174896 1.8304443 -6.731903 2.1470337 -10.186279m69.09677 -25.079208c0.14401245 -16.175476 -10.041016 -30.985916 -26.180298 -38.069794m61.72168 -40.586617c-2.6137085 5.5080566 -6.603821 10.39418 -11.657471 14.275261m-16.524414 -67.00809l0 0c0.44534302 2.2242775 0.65145874 4.481987 0.6154785 6.7418327m-68.93642 -23.254185l0 0c-2.441574 2.591545 -4.4531097 5.4875603 -5.9719696 8.5978775m-53.427414 -3.5241318l0 0c-1.3011475 2.3538818 -2.2727509 4.8446884 -2.8924408 7.4150505m-65.15474 2.028202l0 0c3.798973 2.0070038 7.313545 4.4226456 10.466492 7.193863m-91.831635 41.718983l0 0c0.3865471 2.5624084 0.99731064 5.0932236 1.8265724 7.5687637" fill-rule="evenodd"></path><path stroke="#595959" stroke-width="1.0" stroke-linejoin="round" stroke-linecap="butt" d="m37.2137 93.201836l0 0c-2.804596 -18.591621 6.4034576 -36.996204 23.716846 -47.404c17.313389 -10.407795 39.69572 -10.9935 57.64935 -1.5085831l0 0c6.3597183 -10.80994 17.999863 -18.27346 31.39952 -20.132988c13.399658 -1.8595257 26.98497 2.1033478 36.646667 10.68993l0 0c5.4176636 -9.800987 16.055344 -16.386 28.138245 -17.41833c12.082886 -1.0323315 23.90097 3.634119 31.26056 12.343451l0 0c9.787811 -10.389021 25.360458 -14.763231 39.97957 -11.229885c14.61911 3.533348 25.658966 14.33963 28.34256 27.742908l0 0c11.991699 2.9505272 21.98056 10.451157 27.385742 20.563965c5.405182 10.112808 5.696472 21.845757 0.798584 32.16742l0 0c11.80835 13.863121 14.570618 32.335564 7.2559814 48.52375c-7.314636 16.188171 -23.607239 27.659988 -42.7977 30.134369c-0.1352539 15.193192 -9.372559 29.134277 -24.151398 36.449753c-14.77887 7.3154755 -32.79152 6.8630066 -47.095123 -1.1829987c-6.092575 18.196472 -23.24112 31.58525 -44.03685 34.381912c-20.79573 2.7966614 -41.51059 -5.500168 -53.194992 -21.305954c-14.322639 7.7907257 -31.508614 10.034988 -47.681114 6.2265167c-16.1725 -3.8084564 -29.96923 -13.348831 -38.277935 -26.468994l0 0c-14.635937 1.5449371 -28.786863 -5.295166 -35.429726 -17.125595c-6.642864 -11.830429 -4.363559 -26.132751 5.706705 -35.808792l0 0c-13.055634 -6.9314423 -19.717405 -20.685745 -16.511461 -34.09057c3.205943 -13.404823 15.553123 -23.422585 30.602968 -24.829414z" fill-rule="evenodd"></path><path stroke="#595959" stroke-width="1.0" stroke-linejoin="round" stroke-linecap="butt" d="m22.832886 152.83838l0 0c6.1609917 3.2709656 13.278385 4.7547607 20.39655 4.252136m9.323265 48.683426c3.0610733 -0.32312012 6.0615044 -1.00737 8.92392 -2.0350952m77.03084 22.276733c-2.152954 -2.9123688 -3.9555206 -6.024475 -5.3769836 -9.28331m102.612564 -3.7931976l0 0c1.1107635 -3.3174896 1.8304443 -6.731903 2.1470337 -10.186279m69.09677 -25.079208c0.14401245 -16.175476 -10.041016 -30.985916 -26.180298 -38.069794m61.72168 -40.586617c-2.6137085 5.5080566 -6.603821 10.39418 -11.657471 14.275261m-16.524414 -67.00809l0 0c0.44534302 2.2242775 0.65145874 4.481987 0.6154785 6.7418327m-68.93642 -23.254185l0 0c-2.441574 2.591545 -4.4531097 5.4875603 -5.9719696 8.5978775m-53.427414 -3.5241318l0 0c-1.3011475 2.3538818 -2.2727509 4.8446884 -2.8924408 7.4150505m-65.15474 2.028202l0 0c3.798973 2.0070038 7.313545 4.4226456 10.466492 7.193863m-91.831635 41.718983l0 0c0.3865471 2.5624084 0.99731064 5.0932236 1.8265724 7.5687637" fill-rule="evenodd"></path><path fill="#000000" d="m114.13649 78.262085l0 -13.59375l4.6875 0q1.578125 0 2.421875 0.1875q1.15625 0.265625 1.984375 0.96875q1.078125 0.921875 1.609375 2.34375q0.53125 1.40625 0.53125 3.21875q0 1.546875 -0.359375 2.75q-0.359375 1.1875 -0.921875 1.984375q-0.5625 0.78125 -1.234375 1.234375q-0.671875 0.4375 -1.625 0.671875q-0.953125 0.234375 -2.1875 0.234375l-4.90625 0zm1.796875 -1.609375l2.90625 0q1.34375 0 2.109375 -0.25q0.765625 -0.25 1.21875 -0.703125q0.640625 -0.640625 1.0 -1.71875q0.359375 -1.078125 0.359375 -2.625q0 -2.125 -0.703125 -3.265625q-0.703125 -1.15625 -1.703125 -1.546875q-0.71875 -0.28125 -2.328125 -0.28125l-2.859375 0l0 10.390625zm10.832321 -3.3125q0 -2.734375 1.53125 -4.0625q1.265625 -1.09375 3.09375 -1.09375q2.03125 0 3.3125 1.34375q1.296875 1.328125 1.296875 3.671875q0 1.90625 -0.578125 3.0q-0.5625 1.078125 -1.65625 1.6875q-1.078125 0.59375 -2.375 0.59375q-2.0625 0 -3.34375 -1.328125q-1.28125 -1.328125 -1.28125 -3.8125zm1.71875 0q0 1.890625 0.828125 2.828125q0.828125 0.9375 2.078125 0.9375q1.25 0 2.0625 -0.9375q0.828125 -0.953125 0.828125 -2.890625q0 -1.828125 -0.828125 -2.765625q-0.828125 -0.9375 -2.0625 -0.9375q-1.25 0 -2.078125 0.9375q-0.828125 0.9375 -0.828125 2.828125zm9.281967 4.921875l0 -9.859375l1.5 0l0 1.390625q0.453125 -0.71875 1.21875 -1.15625q0.78125 -0.453125 1.765625 -0.453125q1.09375 0 1.796875 0.453125q0.703125 0.453125 0.984375 1.28125q1.171875 -1.734375 3.046875 -1.734375q1.46875 0 2.25 0.8125q0.796875 0.8125 0.796875 2.5l0 6.765625l-1.671875 0l0 -6.203125q0 -1.0 -0.15625 -1.4375q-0.15625 -0.453125 -0.59375 -0.71875q-0.421875 -0.265625 -1.0 -0.265625q-1.03125 0 -1.71875 0.6875q-0.6875 0.6875 -0.6875 2.21875l0 5.71875l-1.671875 0l0 -6.40625q0 -1.109375 -0.40625 -1.65625q-0.40625 -0.5625 -1.34375 -0.5625q-0.703125 0 -1.3125 0.375q-0.59375 0.359375 -0.859375 1.078125q-0.265625 0.71875 -0.265625 2.0625l0 5.109375l-1.671875 0zm21.978302 -1.21875q-0.9375 0.796875 -1.796875 1.125q-0.859375 0.3125 -1.84375 0.3125q-1.609375 0 -2.484375 -0.78125q-0.875 -0.796875 -0.875 -2.03125q0 -0.734375 0.328125 -1.328125q0.328125 -0.59375 0.859375 -0.953125q0.53125 -0.359375 1.203125 -0.546875q0.5 -0.140625 1.484375 -0.25q2.03125 -0.25 2.984375 -0.578125q0 -0.34375 0 -0.4375q0 -1.015625 -0.46875 -1.4375q-0.640625 -0.5625 -1.90625 -0.5625q-1.171875 0 -1.734375 0.40625q-0.5625 0.40625 -0.828125 1.46875l-1.640625 -0.234375q0.234375 -1.046875 0.734375 -1.6875q0.515625 -0.640625 1.46875 -0.984375q0.96875 -0.359375 2.25 -0.359375q1.265625 0 2.046875 0.296875q0.78125 0.296875 1.15625 0.75q0.375 0.453125 0.515625 1.140625q0.09375 0.421875 0.09375 1.53125l0 2.234375q0 2.328125 0.09375 2.953125q0.109375 0.609375 0.4375 1.171875l-1.75 0q-0.265625 -0.515625 -0.328125 -1.21875zm-0.140625 -3.71875q-0.90625 0.359375 -2.734375 0.625q-1.03125 0.140625 -1.453125 0.328125q-0.421875 0.1875 -0.65625 0.546875q-0.234375 0.359375 -0.234375 0.796875q0 0.671875 0.5 1.125q0.515625 0.4375 1.484375 0.4375q0.96875 0 1.71875 -0.421875q0.75 -0.4375 1.109375 -1.15625q0.265625 -0.578125 0.265625 -1.671875l0 -0.609375zm4.094467 -6.75l0 -1.90625l1.671875 0l0 1.90625l-1.671875 0zm0 11.6875l0 -9.859375l1.671875 0l0 9.859375l-1.671875 0zm4.129196 0l0 -9.859375l1.5 0l0 1.40625q1.09375 -1.625 3.140625 -1.625q0.890625 0 1.640625 0.328125q0.75 0.3125 1.109375 0.84375q0.375 0.515625 0.53125 1.21875q0.09375 0.46875 0.09375 1.625l0 6.0625l-1.671875 0l0 -6.0q0 -1.015625 -0.203125 -1.515625q-0.1875 -0.515625 -0.6875 -0.8125q-0.5 -0.296875 -1.171875 -0.296875q-1.0625 0 -1.84375 0.671875q-0.765625 0.671875 -0.765625 2.578125l0 5.375l-1.671875 0zm16.074646 0l0 -13.59375l1.8125 0l0 13.59375l-1.8125 0zm4.886429 0l0 -13.59375l4.6875 0q1.578125 0 2.421875 0.1875q1.15625 0.265625 1.984375 0.96875q1.078125 0.921875 1.609375 2.34375q0.53125 1.40625 0.53125 3.21875q0 1.546875 -0.359375 2.75q-0.359375 1.1875 -0.921875 1.984375q-0.5625 0.78125 -1.234375 1.234375q-0.671875 0.4375 -1.625 0.671875q-0.953125 0.234375 -2.1875 0.234375l-4.90625 0zm1.796875 -1.609375l2.90625 0q1.34375 0 2.109375 -0.25q0.765625 -0.25 1.21875 -0.703125q0.640625 -0.640625 1.0 -1.71875q0.359375 -1.078125 0.359375 -2.625q0 -2.125 -0.703125 -3.265625q-0.703125 -1.15625 -1.703125 -1.546875q-0.71875 -0.28125 -2.328125 -0.28125l-2.859375 0l0 10.390625zm20.238571 -6.390625l-8.96875 0l0 -1.5625l8.96875 0l0 1.5625zm0 4.125l-8.96875 0l0 -1.546875l8.96875 0l0 1.546875zm7.9418335 3.875l-1.671875 0l0 -10.640625q-0.59375 0.578125 -1.578125 1.15625q-0.984375 0.5625 -1.765625 0.859375l0 -1.625q1.40625 -0.65625 2.453125 -1.59375q1.046875 -0.9375 1.484375 -1.8125l1.078125 0l0 13.65625z" fill-rule="nonzero"></path><path fill="#eeece1" d="m49.989502 113.07889l0 0c0 -4.035675 3.2715607 -7.3072357 7.307232 -7.3072357l44.28317 0c1.9380035 0 3.7966232 0.76986694 5.167 2.1402435c1.370369 1.370369 2.140236 3.2289886 2.140236 5.166992l0 29.228058c0 4.035675 -3.2715607 7.3072205 -7.3072357 7.3072205l-44.28317 0l0 0c-4.035671 0 -7.307232 -3.2715454 -7.307232 -7.3072205z" fill-rule="evenodd"></path><path stroke="#1f497d" stroke-width="2.0" stroke-linejoin="round" stroke-linecap="butt" d="m49.989502 113.07889l0 0c0 -4.035675 3.2715607 -7.3072357 7.307232 -7.3072357l44.28317 0c1.9380035 0 3.7966232 0.76986694 5.167 2.1402435c1.370369 1.370369 2.140236 3.2289886 2.140236 5.166992l0 29.228058c0 4.035675 -3.2715607 7.3072205 -7.3072357 7.3072205l-44.28317 0l0 0c-4.035671 0 -7.307232 -3.2715454 -7.307232 -7.3072205z" fill-rule="evenodd"></path><path fill="#000000" d="m70.53749 134.61292l0 -13.593758l5.125 0q1.359375 0 2.078125 0.125q1.0 0.171875 1.671875 0.640625q0.671875 0.46875 1.078125 1.3125q0.421875 0.84375 0.421875 1.84375q0 1.734375 -1.109375 2.9375q-1.09375 1.2031326 -3.984375 1.2031326l-3.484375 0l0 5.53125l-1.796875 0zm1.796875 -7.1406326l3.515625 0q1.75 0 2.46875 -0.640625q0.734375 -0.65625 0.734375 -1.828125q0 -0.859375 -0.4375 -1.46875q-0.421875 -0.609375 -1.125 -0.796875q-0.453125 -0.125 -1.671875 -0.125l-3.484375 0l0 4.859375z" fill-rule="nonzero"></path><path fill="#000000" d="m81.49669 141.61292l3.296875 -8.59375l1.21875 0l3.515625 8.59375l-1.28125 0l-1.015625 -2.609375l-3.578125 0l-0.953125 2.609375l-1.203125 0zm2.484375 -3.53125l2.90625 0l-0.890625 -2.375q-0.421875 -1.078125 -0.609375 -1.78125q-0.171875 0.828125 -0.46875 1.640625l-0.9375 2.515625z" fill-rule="nonzero"></path><path fill="#d9ead3" d="m314.34122 282.87964l0 0c0 -10.326904 8.371613 -18.698547 18.698517 -18.698547l202.00452 0c4.9591675 0 9.71521 1.9700317 13.221863 5.4766846c3.5066528 3.5066528 5.4766846 8.262695 5.4766846 13.221863l0 74.7919c0 10.326904 -8.371643 18.698547 -18.698547 18.698547l-202.00452 0c-10.326904 0 -18.698517 -8.371643 -18.698517 -18.698547z" fill-rule="evenodd"></path><path stroke="#1f497d" stroke-width="2.0" stroke-linejoin="round" stroke-linecap="butt" d="m314.34122 282.87964l0 0c0 -10.326904 8.371613 -18.698547 18.698517 -18.698547l202.00452 0c4.9591675 0 9.71521 1.9700317 13.221863 5.4766846c3.5066528 3.5066528 5.4766846 8.262695 5.4766846 13.221863l0 74.7919c0 10.326904 -8.371643 18.698547 -18.698547 18.698547l-202.00452 0c-10.326904 0 -18.698517 -8.371643 -18.698517 -18.698547z" fill-rule="evenodd"></path><path fill="#000000" d="m339.9897 322.42996l1.796875 0.453125q-0.5625 2.21875 -2.03125 3.390625q-1.46875 1.15625 -3.59375 1.15625q-2.203125 0 -3.578125 -0.890625q-1.375 -0.90625 -2.09375 -2.59375q-0.71875 -1.703125 -0.71875 -3.65625q0 -2.125 0.796875 -3.703125q0.8125 -1.578125 2.3125 -2.390625q1.5 -0.828125 3.296875 -0.828125q2.046875 0 3.4375 1.046875q1.390625 1.03125 1.9375 2.90625l-1.765625 0.421875q-0.46875 -1.484375 -1.375 -2.15625q-0.90625 -0.6875 -2.265625 -0.6875q-1.5625 0 -2.625 0.75q-1.046875 0.75 -1.484375 2.03125q-0.421875 1.265625 -0.421875 2.609375q0 1.734375 0.5 3.03125q0.515625 1.28125 1.578125 1.921875q1.078125 0.640625 2.3125 0.640625q1.515625 0 2.5625 -0.859375q1.046875 -0.875 1.421875 -2.59375zm3.5198364 4.765625l0 -13.59375l1.671875 0l0 13.59375l-1.671875 0zm3.551056 -4.921875q0 -2.734375 1.53125 -4.0625q1.265625 -1.09375 3.09375 -1.09375q2.03125 0 3.3125 1.34375q1.296875 1.328125 1.296875 3.671875q0 1.90625 -0.578125 3.0q-0.5625 1.078125 -1.65625 1.6875q-1.078125 0.59375 -2.375 0.59375q-2.0625 0 -3.34375 -1.328125q-1.28125 -1.328125 -1.28125 -3.8125zm1.71875 0q0 1.890625 0.828125 2.828125q0.828125 0.9375 2.078125 0.9375q1.25 0 2.0625 -0.9375q0.828125 -0.953125 0.828125 -2.890625q0 -1.828125 -0.828125 -2.765625q-0.828125 -0.9375 -2.0625 -0.9375q-1.25 0 -2.078125 0.9375q-0.828125 0.9375 -0.828125 2.828125zm15.735107 4.921875l0 -1.453125q-1.140625 1.671875 -3.125 1.671875q-0.859375 0 -1.625 -0.328125q-0.75 -0.34375 -1.125 -0.84375q-0.359375 -0.5 -0.515625 -1.234375q-0.09375 -0.5 -0.09375 -1.5625l0 -6.109375l1.671875 0l0 5.46875q0 1.3125 0.09375 1.765625q0.15625 0.65625 0.671875 1.03125q0.515625 0.375 1.265625 0.375q0.75 0 1.40625 -0.375q0.65625 -0.390625 0.921875 -1.046875q0.28125 -0.671875 0.28125 -1.9375l0 -5.28125l1.671875 0l0 9.859375l-1.5 0zm10.313202 0l0 -1.25q-0.9375 1.46875 -2.75 1.46875q-1.171875 0 -2.171875 -0.640625q-0.984375 -0.65625 -1.53125 -1.8125q-0.53125 -1.171875 -0.53125 -2.6875q0 -1.46875 0.484375 -2.671875q0.5 -1.203125 1.46875 -1.84375q0.984375 -0.640625 2.203125 -0.640625q0.890625 0 1.578125 0.375q0.703125 0.375 1.140625 0.984375l0 -4.875l1.65625 0l0 13.59375l-1.546875 0zm-5.28125 -4.921875q0 1.890625 0.796875 2.828125q0.8125 0.9375 1.890625 0.9375q1.09375 0 1.859375 -0.890625q0.765625 -0.890625 0.765625 -2.734375q0 -2.015625 -0.78125 -2.953125q-0.78125 -0.953125 -1.921875 -0.953125q-1.109375 0 -1.859375 0.90625q-0.75 0.90625 -0.75 2.859375zm14.668396 4.921875l0 -13.59375l4.6875 0q1.578125 0 2.421875 0.1875q1.15625 0.265625 1.984375 0.96875q1.078125 0.921875 1.609375 2.34375q0.53125 1.40625 0.53125 3.21875q0 1.546875 -0.359375 2.75q-0.359375 1.1875 -0.921875 1.984375q-0.5625 0.78125 -1.234375 1.234375q-0.671875 0.4375 -1.625 0.671875q-0.953125 0.234375 -2.1875 0.234375l-4.90625 0zm1.796875 -1.609375l2.90625 0q1.34375 0 2.109375 -0.25q0.765625 -0.25 1.21875 -0.703125q0.640625 -0.640625 1.0 -1.71875q0.359375 -1.078125 0.359375 -2.625q0 -2.125 -0.703125 -3.265625q-0.703125 -1.15625 -1.703125 -1.546875q-0.71875 -0.28125 -2.328125 -0.28125l-2.859375 0l0 10.390625zm11.472961 -10.078125l0 -1.90625l1.671875 0l0 1.90625l-1.671875 0zm0 11.6875l0 -9.859375l1.671875 0l0 9.859375l-1.671875 0zm3.457306 -2.9375l1.65625 -0.265625q0.140625 1.0 0.765625 1.53125q0.640625 0.515625 1.78125 0.515625q1.15625 0 1.703125 -0.46875q0.5625 -0.46875 0.5625 -1.09375q0 -0.5625 -0.484375 -0.890625q-0.34375 -0.21875 -1.703125 -0.5625q-1.84375 -0.46875 -2.5625 -0.796875q-0.703125 -0.34375 -1.078125 -0.9375q-0.359375 -0.609375 -0.359375 -1.328125q0 -0.65625 0.296875 -1.21875q0.3125 -0.5625 0.828125 -0.9375q0.390625 -0.28125 1.0625 -0.484375q0.671875 -0.203125 1.4375 -0.203125q1.171875 0 2.046875 0.34375q0.875 0.328125 1.28125 0.90625q0.421875 0.5625 0.578125 1.515625l-1.625 0.21875q-0.109375 -0.75 -0.65625 -1.171875q-0.53125 -0.4375 -1.5 -0.4375q-1.15625 0 -1.640625 0.390625q-0.484375 0.375 -0.484375 0.875q0 0.328125 0.203125 0.59375q0.203125 0.265625 0.640625 0.4375q0.25 0.09375 1.46875 0.4375q1.765625 0.46875 2.46875 0.765625q0.703125 0.296875 1.09375 0.875q0.40625 0.578125 0.40625 1.4375q0 0.828125 -0.484375 1.578125q-0.484375 0.734375 -1.40625 1.140625q-0.921875 0.390625 -2.078125 0.390625q-1.921875 0 -2.9375 -0.796875q-1.0 -0.796875 -1.28125 -2.359375zm16.4375 -0.671875l1.640625 0.21875q-0.265625 1.6875 -1.375 2.65625q-1.109375 0.953125 -2.734375 0.953125q-2.015625 0 -3.25 -1.3125q-1.21875 -1.328125 -1.21875 -3.796875q0 -1.59375 0.515625 -2.78125q0.53125 -1.203125 1.609375 -1.796875q1.09375 -0.609375 2.359375 -0.609375q1.609375 0 2.625 0.8125q1.015625 0.8125 1.3125 2.3125l-1.625 0.25q-0.234375 -1.0 -0.828125 -1.5q-0.59375 -0.5 -1.421875 -0.5q-1.265625 0 -2.0625 0.90625q-0.78125 0.90625 -0.78125 2.859375q0 1.984375 0.765625 2.890625q0.765625 0.890625 1.984375 0.890625q0.984375 0 1.640625 -0.59375q0.65625 -0.609375 0.84375 -1.859375zm2.265625 -1.3125q0 -2.734375 1.53125 -4.0625q1.265625 -1.09375 3.09375 -1.09375q2.03125 0 3.3125 1.34375q1.296875 1.328125 1.296875 3.671875q0 1.90625 -0.578125 3.0q-0.5625 1.078125 -1.65625 1.6875q-1.078125 0.59375 -2.375 0.59375q-2.0625 0 -3.34375 -1.328125q-1.28125 -1.328125 -1.28125 -3.8125zm1.71875 0q0 1.890625 0.828125 2.828125q0.828125 0.9375 2.078125 0.9375q1.25 0 2.0625 -0.9375q0.828125 -0.953125 0.828125 -2.890625q0 -1.828125 -0.828125 -2.765625q-0.828125 -0.9375 -2.0625 -0.9375q-1.25 0 -2.078125 0.9375q-0.828125 0.9375 -0.828125 2.828125zm12.016357 4.921875l-3.75 -9.859375l1.765625 0l2.125 5.90625q0.34375 0.953125 0.625 1.984375q0.21875 -0.78125 0.625 -1.875l2.1875 -6.015625l1.71875 0l-3.734375 9.859375l-1.5625 0zm13.34375 -3.171875l1.71875 0.21875q-0.40625 1.5 -1.515625 2.34375q-1.09375 0.828125 -2.8125 0.828125q-2.15625 0 -3.421875 -1.328125q-1.265625 -1.328125 -1.265625 -3.734375q0 -2.484375 1.265625 -3.859375q1.28125 -1.375 3.328125 -1.375q1.984375 0 3.234375 1.34375q1.25 1.34375 1.25 3.796875q0 0.140625 -0.015625 0.4375l-7.34375 0q0.09375 1.625 0.921875 2.484375q0.828125 0.859375 2.0625 0.859375q0.90625 0 1.546875 -0.46875q0.65625 -0.484375 1.046875 -1.546875zm-5.484375 -2.703125l5.5 0q-0.109375 -1.234375 -0.625 -1.859375q-0.796875 -0.96875 -2.078125 -0.96875q-1.140625 0 -1.9375 0.78125q-0.78125 0.765625 -0.859375 2.046875zm9.094452 5.875l0 -9.859375l1.5 0l0 1.5q0.578125 -1.046875 1.0625 -1.375q0.484375 -0.34375 1.078125 -0.34375q0.84375 0 1.71875 0.546875l-0.578125 1.546875q-0.609375 -0.359375 -1.234375 -0.359375q-0.546875 0 -0.984375 0.328125q-0.421875 0.328125 -0.609375 0.90625q-0.28125 0.890625 -0.28125 1.953125l0 5.15625l-1.671875 0zm6.150177 3.796875l-0.171875 -1.5625q0.546875 0.140625 0.953125 0.140625q0.546875 0 0.875 -0.1875q0.34375 -0.1875 0.5625 -0.515625q0.15625 -0.25 0.5 -1.25q0.046875 -0.140625 0.15625 -0.40625l-3.734375 -9.875l1.796875 0l2.046875 5.71875q0.40625 1.078125 0.71875 2.28125q0.28125 -1.15625 0.6875 -2.25l2.09375 -5.75l1.671875 0l-3.75 10.03125q-0.59375 1.625 -0.9375 2.234375q-0.4375 0.828125 -1.015625 1.203125q-0.578125 0.390625 -1.375 0.390625q-0.484375 0 -1.078125 -0.203125zm14.198944 -8.171875l1.6875 -0.140625q0.125 1.015625 0.5625 1.671875q0.4375 0.65625 1.359375 1.0625q0.9375 0.40625 2.09375 0.40625q1.03125 0 1.8125 -0.3125q0.796875 -0.3125 1.1875 -0.84375q0.390625 -0.53125 0.390625 -1.15625q0 -0.640625 -0.375 -1.109375q-0.375 -0.484375 -1.234375 -0.8125q-0.546875 -0.21875 -2.421875 -0.65625q-1.875 -0.453125 -2.625 -0.859375q-0.96875 -0.515625 -1.453125 -1.265625q-0.46875 -0.75 -0.46875 -1.6875q0 -1.03125 0.578125 -1.921875q0.59375 -0.90625 1.703125 -1.359375q1.125 -0.46875 2.5 -0.46875q1.515625 0 2.671875 0.484375q1.15625 0.484375 1.765625 1.4375q0.625 0.9375 0.671875 2.140625l-1.71875 0.125q-0.140625 -1.28125 -0.953125 -1.9375q-0.796875 -0.671875 -2.359375 -0.671875q-1.625 0 -2.375 0.609375q-0.75 0.59375 -0.75 1.4375q0 0.734375 0.53125 1.203125q0.515625 0.46875 2.703125 0.96875q2.203125 0.5 3.015625 0.875q1.1875 0.546875 1.75 1.390625q0.578125 0.828125 0.578125 1.921875q0 1.09375 -0.625 2.0625q-0.625 0.953125 -1.796875 1.484375q-1.15625 0.53125 -2.609375 0.53125q-1.84375 0 -3.09375 -0.53125q-1.25 -0.546875 -1.96875 -1.625q-0.703125 -1.078125 -0.734375 -2.453125zm19.584198 1.203125l1.71875 0.21875q-0.40625 1.5 -1.515625 2.34375q-1.09375 0.828125 -2.8125 0.828125q-2.15625 0 -3.421875 -1.328125q-1.265625 -1.328125 -1.265625 -3.734375q0 -2.484375 1.265625 -3.859375q1.28125 -1.375 3.328125 -1.375q1.984375 0 3.234375 1.34375q1.25 1.34375 1.25 3.796875q0 0.140625 -0.015625 0.4375l-7.34375 0q0.09375 1.625 0.921875 2.484375q0.828125 0.859375 2.0625 0.859375q0.90625 0 1.546875 -0.46875q0.65625 -0.484375 1.046875 -1.546875zm-5.484375 -2.703125l5.5 0q-0.109375 -1.234375 -0.625 -1.859375q-0.796875 -0.96875 -2.078125 -0.96875q-1.140625 0 -1.9375 0.78125q-0.78125 0.765625 -0.859375 2.046875zm9.094452 5.875l0 -9.859375l1.5 0l0 1.5q0.578125 -1.046875 1.0625 -1.375q0.484375 -0.34375 1.078125 -0.34375q0.84375 0 1.71875 0.546875l-0.578125 1.546875q-0.609375 -0.359375 -1.234375 -0.359375q-0.546875 0 -0.984375 0.328125q-0.421875 0.328125 -0.609375 0.90625q-0.28125 0.890625 -0.28125 1.953125l0 5.15625l-1.671875 0zm8.962677 0l-3.75 -9.859375l1.765625 0l2.125 5.90625q0.34375 0.953125 0.625 1.984375q0.21875 -0.78125 0.625 -1.875l2.1875 -6.015625l1.71875 0l-3.734375 9.859375l-1.5625 0zm6.609375 -11.6875l0 -1.90625l1.671875 0l0 1.90625l-1.671875 0zm0 11.6875l0 -9.859375l1.671875 0l0 9.859375l-1.671875 0zm10.566681 -3.609375l1.640625 0.21875q-0.265625 1.6875 -1.375 2.65625q-1.109375 0.953125 -2.734375 0.953125q-2.015625 0 -3.25 -1.3125q-1.21875 -1.328125 -1.21875 -3.796875q0 -1.59375 0.515625 -2.78125q0.53125 -1.203125 1.609375 -1.796875q1.09375 -0.609375 2.359375 -0.609375q1.609375 0 2.625 0.8125q1.015625 0.8125 1.3125 2.3125l-1.625 0.25q-0.234375 -1.0 -0.828125 -1.5q-0.59375 -0.5 -1.421875 -0.5q-1.265625 0 -2.0625 0.90625q-0.78125 0.90625 -0.78125 2.859375q0 1.984375 0.765625 2.890625q0.765625 0.890625 1.984375 0.890625q0.984375 0 1.640625 -0.59375q0.65625 -0.609375 0.84375 -1.859375zm9.640625 0.4375l1.71875 0.21875q-0.40625 1.5 -1.515625 2.34375q-1.09375 0.828125 -2.8125 0.828125q-2.15625 0 -3.421875 -1.328125q-1.265625 -1.328125 -1.265625 -3.734375q0 -2.484375 1.265625 -3.859375q1.28125 -1.375 3.328125 -1.375q1.984375 0 3.234375 1.34375q1.25 1.34375 1.25 3.796875q0 0.140625 -0.015625 0.4375l-7.34375 0q0.09375 1.625 0.921875 2.484375q0.828125 0.859375 2.0625 0.859375q0.90625 0 1.546875 -0.46875q0.65625 -0.484375 1.046875 -1.546875zm-5.484375 -2.703125l5.5 0q-0.109375 -1.234375 -0.625 -1.859375q-0.796875 -0.96875 -2.078125 -0.96875q-1.140625 0 -1.9375 0.78125q-0.78125 0.765625 -0.859375 2.046875z" fill-rule="nonzero"></path><path fill="#000000" fill-opacity="0.0" d="m79.438324 149.61417l79.02362 57.637802" fill-rule="evenodd"></path><path stroke="#b7b7b7" stroke-width="2.0" stroke-linejoin="round" stroke-linecap="butt" d="m79.438324 149.61417l79.02362 57.637802" fill-rule="evenodd"></path><path fill="#000000" fill-opacity="0.0" d="m217.3727 207.24672l18.929138 -96.18898" fill-rule="evenodd"></path><path stroke="#b7b7b7" stroke-width="2.0" stroke-linejoin="round" stroke-linecap="butt" d="m217.3727 207.24672l18.929138 -96.18898" fill-rule="evenodd"></path><path fill="#eeece1" d="m236.30183 96.44372l0 0c0 -4.035675 3.2715607 -7.3072357 7.3072357 -7.3072357l44.283173 0c1.9379883 0 3.7966309 0.76986694 5.166992 2.140236c1.3703613 1.3703766 2.1402283 3.2289963 2.1402283 5.167l0 29.22805c0 4.035675 -3.2715454 7.3072357 -7.3072205 7.3072357l-44.283173 0l0 0c-4.035675 0 -7.3072357 -3.2715607 -7.3072357 -7.3072357z" fill-rule="evenodd"></path><path stroke="#1f497d" stroke-width="2.0" stroke-linejoin="round" stroke-linecap="butt" d="m236.30183 96.44372l0 0c0 -4.035675 3.2715607 -7.3072357 7.3072357 -7.3072357l44.283173 0c1.9379883 0 3.7966309 0.76986694 5.166992 2.140236c1.3703613 1.3703766 2.1402283 3.2289963 2.1402283 5.167l0 29.22805c0 4.035675 -3.2715454 7.3072357 -7.3072205 7.3072357l-44.283173 0l0 0c-4.035675 0 -7.3072357 -3.2715607 -7.3072357 -7.3072357z" fill-rule="evenodd"></path><path fill="#000000" d="m256.84982 117.97774l0 -13.59375l5.125 0q1.359375 0 2.078125 0.125q1.0 0.171875 1.671875 0.640625q0.671875 0.46875 1.078125 1.3125q0.421875 0.84375 0.421875 1.84375q0 1.734375 -1.109375 2.9375q-1.09375 1.203125 -3.984375 1.203125l-3.484375 0l0 5.53125l-1.796875 0zm1.796875 -7.140625l3.515625 0q1.75 0 2.46875 -0.640625q0.734375 -0.65625 0.734375 -1.828125q0 -0.859375 -0.4375 -1.46875q-0.421875 -0.609375 -1.125 -0.796875q-0.453125 -0.125 -1.671875 -0.125l-3.484375 0l0 4.859375z" fill-rule="nonzero"></path><path fill="#000000" d="m268.69965 124.97774l0 -8.59375l3.234375 0q0.984375 0 1.578125 0.265625q0.59375 0.265625 0.921875 0.8125q0.34375 0.53125 0.34375 1.125q0 0.546875 -0.296875 1.03125q-0.296875 0.484375 -0.90625 0.78125q0.78125 0.234375 1.1875 0.796875q0.421875 0.546875 0.421875 1.296875q0 0.59375 -0.25 1.125q-0.25 0.515625 -0.625 0.796875q-0.375 0.28125 -0.953125 0.421875q-0.5625 0.140625 -1.375 0.140625l-3.28125 0zm1.140625 -4.984375l1.859375 0q0.75 0 1.078125 -0.09375q0.4375 -0.125 0.65625 -0.421875q0.21875 -0.3125 0.21875 -0.765625q0 -0.421875 -0.203125 -0.75q-0.203125 -0.328125 -0.59375 -0.4375q-0.375 -0.125 -1.296875 -0.125l-1.71875 0l0 2.59375zm0 3.96875l2.140625 0q0.546875 0 0.765625 -0.046875q0.40625 -0.0625 0.65625 -0.21875q0.265625 -0.171875 0.4375 -0.484375q0.171875 -0.3125 0.171875 -0.71875q0 -0.484375 -0.25 -0.84375q-0.234375 -0.359375 -0.671875 -0.5q-0.4375 -0.140625 -1.265625 -0.140625l-1.984375 0l0 2.953125z" fill-rule="nonzero"></path><path fill="#eeece1" d="m158.47507 192.63269l0 0c0 -4.035675 3.2715607 -7.3072357 7.3072357 -7.3072357l44.283173 0c1.9379883 0 3.7966156 0.76986694 5.166992 2.1402435c1.3703613 1.3703766 2.1402283 3.2289886 2.1402283 5.166992l0 29.228058c0 4.035675 -3.2715454 7.3072357 -7.3072205 7.3072357l-44.283173 0l0 0c-4.035675 0 -7.3072357 -3.2715607 -7.3072357 -7.3072357z" fill-rule="evenodd"></path><path stroke="#1f497d" stroke-width="2.0" stroke-linejoin="round" stroke-linecap="butt" d="m158.47507 192.63269l0 0c0 -4.035675 3.2715607 -7.3072357 7.3072357 -7.3072357l44.283173 0c1.9379883 0 3.7966156 0.76986694 5.166992 2.1402435c1.3703613 1.3703766 2.1402283 3.2289886 2.1402283 5.166992l0 29.228058c0 4.035675 -3.2715454 7.3072357 -7.3072205 7.3072357l-44.283173 0l0 0c-4.035675 0 -7.3072357 -3.2715607 -7.3072357 -7.3072357z" fill-rule="evenodd"></path><path fill="#000000" d="m178.67993 214.16672l0 -13.59375l5.125 0q1.359375 0 2.078125 0.125q1.0 0.171875 1.671875 0.640625q0.671875 0.46875 1.078125 1.3125q0.421875 0.84375 0.421875 1.84375q0 1.734375 -1.109375 2.9375q-1.09375 1.203125 -3.984375 1.203125l-3.484375 0l0 5.53125l-1.796875 0zm1.796875 -7.140625l3.515625 0q1.75 0 2.46875 -0.640625q0.734375 -0.65625 0.734375 -1.828125q0 -0.859375 -0.4375 -1.46875q-0.421875 -0.609375 -1.125 -0.796875q-0.453125 -0.125 -1.671875 -0.125l-3.484375 0l0 4.859375z" fill-rule="nonzero"></path><path fill="#000000" d="m196.71725 218.1511l1.125 0.296875q-0.359375 1.390625 -1.28125 2.125q-0.921875 0.734375 -2.265625 0.734375q-1.390625 0 -2.265625 -0.5625q-0.875 -0.5625 -1.328125 -1.625q-0.453125 -1.078125 -0.453125 -2.3125q0 -1.34375 0.515625 -2.34375q0.515625 -1.0 1.453125 -1.515625q0.953125 -0.515625 2.09375 -0.515625q1.28125 0 2.15625 0.65625q0.890625 0.65625 1.234375 1.84375l-1.125 0.265625q-0.296875 -0.9375 -0.875 -1.359375q-0.5625 -0.4375 -1.421875 -0.4375q-0.984375 0 -1.65625 0.484375q-0.65625 0.46875 -0.9375 1.265625q-0.265625 0.796875 -0.265625 1.65625q0 1.09375 0.3125 1.90625q0.328125 0.8125 1.0 1.21875q0.671875 0.40625 1.46875 0.40625q0.953125 0 1.609375 -0.546875q0.671875 -0.546875 0.90625 -1.640625z" fill-rule="nonzero"></path><path fill="#000000" fill-opacity="0.0" d="m108.88714 127.69292l127.40157 -16.629921" fill-rule="evenodd"></path><path stroke="#b7b7b7" stroke-width="2.0" stroke-linejoin="round" stroke-linecap="butt" d="m108.88714 127.69292l127.40157 -16.629921" fill-rule="evenodd"></path><path fill="#000000" fill-opacity="0.0" d="m612.1688 228.28845l-52.39154 44.64923" fill-rule="evenodd"></path><path stroke="#0000ff" stroke-width="1.0" stroke-linejoin="round" stroke-linecap="butt" d="m612.1688 228.28845l-47.82489 40.757446" fill-rule="evenodd"></path><path fill="#0000ff" stroke="#0000ff" stroke-width="1.0" stroke-linecap="butt" d="m563.2725 267.78876l-2.3825684 4.2006836l4.5253296 -1.6864014z" fill-rule="evenodd"></path><path fill="#000000" fill-opacity="0.0" d="m556.3232 257.43076l47.756958 -40.77693" fill-rule="evenodd"></path><path stroke="#0000ff" stroke-width="1.0" stroke-linejoin="round" stroke-linecap="butt" d="m556.3232 257.4308l43.19397 -36.88092" fill-rule="evenodd"></path><path fill="#0000ff" stroke="#0000ff" stroke-width="1.0" stroke-linecap="butt" d="m600.58966 221.80602l2.378662 -4.2029266l-4.5237427 1.6906586z" fill-rule="evenodd"></path><path fill="#000000" fill-opacity="0.0" d="m583.43677 86.06273l0 0c-2.8045654 -18.591621 6.4035034 -36.996204 23.716858 -47.404c17.313416 -10.407795 39.69574 -10.993502 57.649353 -1.5085831l0 0c6.359741 -10.809942 17.999878 -18.273462 31.399536 -20.132988c13.399658 -1.8595266 26.984985 2.1033478 36.646667 10.68993l0 0c5.4176636 -9.800989 16.055359 -16.386 28.138245 -17.418331c12.082886 -1.0323315 23.90094 3.634119 31.26056 12.3434515l0 0c9.787781 -10.389022 25.360474 -14.763232 39.979553 -11.229885c14.619141 3.5333462 25.658997 14.33963 28.34259 27.742908l0 0c11.991699 2.9505272 21.98053 10.451157 27.385742 20.563965c5.4051514 10.112808 5.696472 21.845757 0.798584 32.16742l0 0c11.80835 13.863121 14.570618 32.335564 7.2559814 48.523743c-7.314636 16.188171 -23.607239 27.660004 -42.79773 30.134384c-0.1352539 15.193176 -9.372559 29.134262 -24.151367 36.449738c-14.77887 7.3154755 -32.791565 6.863022 -47.095154 -1.1829834c-6.0925293 18.196457 -23.241089 31.58525 -44.036865 34.381897c-20.795715 2.7966614 -41.51056 -5.500168 -53.194946 -21.305939c-14.322632 7.7907104 -31.508606 10.034973 -47.681152 6.2265167c-16.172485 -3.8084564 -29.969238 -13.348831 -38.277893 -26.46901l0 0c-14.635986 1.5449371 -28.786865 -5.295166 -35.42975 -17.125595c-6.6428833 -11.830414 -4.3635864 -26.132736 5.706726 -35.808777l0 0c-13.055664 -6.9314575 -19.717407 -20.685753 -16.511475 -34.090576c3.2059326 -13.404823 15.553101 -23.422585 30.602966 -24.829414z" fill-rule="evenodd"></path><path fill="#000000" fill-opacity="0.0" d="m569.05597 145.69926l0 0c6.1610107 3.2709656 13.278381 4.7547607 20.396545 4.2521515m9.323303 48.68341c3.0610352 -0.32312012 6.0614624 -1.00737 8.923889 -2.0350952m77.03088 22.276733c-2.1530151 -2.9123535 -3.9555664 -6.024475 -5.377014 -9.283295m102.61255 -3.793213l0 0c1.1107788 -3.3174896 1.8304443 -6.731888 2.1470337 -10.186264m69.0968 -25.079208c0.14398193 -16.175491 -10.041016 -30.985931 -26.180298 -38.06981m61.72168 -40.586617c-2.6137085 5.5080643 -6.603821 10.394188 -11.657471 14.275269m-16.524414 -67.00809l0 0c0.4453125 2.2242775 0.6514282 4.481987 0.6154785 6.7418327m-68.93646 -23.254187l0 0c-2.4415283 2.591545 -4.453064 5.487562 -5.971924 8.597879m-53.42743 -3.5241318l0 0c-1.3011475 2.35388 -2.272766 4.8446884 -2.892456 7.4150505m-65.154724 2.028202l0 0c3.7989502 2.007 7.3135376 4.4226456 10.466492 7.193859m-91.831665 41.718987l0 0c0.38659668 2.5624084 0.99731445 5.0932236 1.8265991 7.5687637" fill-rule="evenodd"></path><path stroke="#595959" stroke-width="1.0" stroke-linejoin="round" stroke-linecap="butt" d="m583.43677 86.06273l0 0c-2.8045654 -18.591621 6.4035034 -36.996204 23.716858 -47.404c17.313416 -10.407795 39.69574 -10.993502 57.649353 -1.5085831l0 0c6.359741 -10.809942 17.999878 -18.273462 31.399536 -20.132988c13.399658 -1.8595266 26.984985 2.1033478 36.646667 10.68993l0 0c5.4176636 -9.800989 16.055359 -16.386 28.138245 -17.418331c12.082886 -1.0323315 23.90094 3.634119 31.26056 12.3434515l0 0c9.787781 -10.389022 25.360474 -14.763232 39.979553 -11.229885c14.619141 3.5333462 25.658997 14.33963 28.34259 27.742908l0 0c11.991699 2.9505272 21.98053 10.451157 27.385742 20.563965c5.4051514 10.112808 5.696472 21.845757 0.798584 32.16742l0 0c11.80835 13.863121 14.570618 32.335564 7.2559814 48.523743c-7.314636 16.188171 -23.607239 27.660004 -42.79773 30.134384c-0.1352539 15.193176 -9.372559 29.134262 -24.151367 36.449738c-14.77887 7.3154755 -32.791565 6.863022 -47.095154 -1.1829834c-6.0925293 18.196457 -23.241089 31.58525 -44.036865 34.381897c-20.795715 2.7966614 -41.51056 -5.500168 -53.194946 -21.305939c-14.322632 7.7907104 -31.508606 10.034973 -47.681152 6.2265167c-16.172485 -3.8084564 -29.969238 -13.348831 -38.277893 -26.46901l0 0c-14.635986 1.5449371 -28.786865 -5.295166 -35.42975 -17.125595c-6.6428833 -11.830414 -4.3635864 -26.132736 5.706726 -35.808777l0 0c-13.055664 -6.9314575 -19.717407 -20.685753 -16.511475 -34.090576c3.2059326 -13.404823 15.553101 -23.422585 30.602966 -24.829414z" fill-rule="evenodd"></path><path stroke="#595959" stroke-width="1.0" stroke-linejoin="round" stroke-linecap="butt" d="m569.05597 145.69926l0 0c6.1610107 3.2709656 13.278381 4.7547607 20.396545 4.2521515m9.323303 48.68341c3.0610352 -0.32312012 6.0614624 -1.00737 8.923889 -2.0350952m77.03088 22.276733c-2.1530151 -2.9123535 -3.9555664 -6.024475 -5.377014 -9.283295m102.61255 -3.793213l0 0c1.1107788 -3.3174896 1.8304443 -6.731888 2.1470337 -10.186264m69.0968 -25.079208c0.14398193 -16.175491 -10.041016 -30.985931 -26.180298 -38.06981m61.72168 -40.586617c-2.6137085 5.5080643 -6.603821 10.394188 -11.657471 14.275269m-16.524414 -67.00809l0 0c0.4453125 2.2242775 0.6514282 4.481987 0.6154785 6.7418327m-68.93646 -23.254187l0 0c-2.4415283 2.591545 -4.453064 5.487562 -5.971924 8.597879m-53.42743 -3.5241318l0 0c-1.3011475 2.35388 -2.272766 4.8446884 -2.892456 7.4150505m-65.154724 2.028202l0 0c3.7989502 2.007 7.3135376 4.4226456 10.466492 7.193859m-91.831665 41.718987l0 0c0.38659668 2.5624084 0.99731445 5.0932236 1.8265991 7.5687637" fill-rule="evenodd"></path><path fill="#000000" d="m660.3596 71.12298l0 -13.59375l4.6875 0q1.578125 0 2.421875 0.1875q1.15625 0.265625 1.984375 0.96875q1.078125 0.921875 1.609375 2.34375q0.53125 1.40625 0.53125 3.21875q0 1.546875 -0.359375 2.75q-0.359375 1.1875 -0.921875 1.984375q-0.5625 0.78125 -1.234375 1.234375q-0.671875 0.4375 -1.625 0.671875q-0.953125 0.234375 -2.1875 0.234375l-4.90625 0zm1.796875 -1.609375l2.90625 0q1.34375 0 2.109375 -0.25q0.765625 -0.25 1.21875 -0.703125q0.640625 -0.640625 1.0 -1.71875q0.359375 -1.078125 0.359375 -2.625q0 -2.125 -0.703125 -3.265625q-0.703125 -1.15625 -1.703125 -1.546875q-0.71875 -0.28125 -2.328125 -0.28125l-2.859375 0l0 10.390625zm10.832275 -3.3125q0 -2.734375 1.53125 -4.0625q1.265625 -1.09375 3.09375 -1.09375q2.03125 0 3.3125 1.34375q1.296875 1.328125 1.296875 3.671875q0 1.90625 -0.578125 3.0q-0.5625 1.078125 -1.65625 1.6875q-1.078125 0.59375 -2.375 0.59375q-2.0625 0 -3.34375 -1.328125q-1.28125 -1.328125 -1.28125 -3.8125zm1.71875 0q0 1.890625 0.828125 2.828125q0.828125 0.9375 2.078125 0.9375q1.25 0 2.0625 -0.9375q0.828125 -0.953125 0.828125 -2.890625q0 -1.828125 -0.828125 -2.765625q-0.828125 -0.9375 -2.0625 -0.9375q-1.25 0 -2.078125 0.9375q-0.828125 0.9375 -0.828125 2.828125zm9.281982 4.921875l0 -9.859375l1.5 0l0 1.390625q0.453125 -0.71875 1.21875 -1.15625q0.78125 -0.453125 1.765625 -0.453125q1.09375 0 1.796875 0.453125q0.703125 0.453125 0.984375 1.28125q1.171875 -1.734375 3.046875 -1.734375q1.46875 0 2.25 0.8125q0.796875 0.8125 0.796875 2.5l0 6.765625l-1.671875 0l0 -6.203125q0 -1.0 -0.15625 -1.4375q-0.15625 -0.453125 -0.59375 -0.71875q-0.421875 -0.265625 -1.0 -0.265625q-1.03125 0 -1.71875 0.6875q-0.6875 0.6875 -0.6875 2.21875l0 5.71875l-1.671875 0l0 -6.40625q0 -1.109375 -0.40625 -1.65625q-0.40625 -0.5625 -1.34375 -0.5625q-0.703125 0 -1.3125 0.375q-0.59375 0.359375 -0.859375 1.078125q-0.265625 0.71875 -0.265625 2.0625l0 5.109375l-1.671875 0zm21.978333 -1.21875q-0.9375 0.796875 -1.796875 1.125q-0.859375 0.3125 -1.84375 0.3125q-1.609375 0 -2.484375 -0.78125q-0.875 -0.796875 -0.875 -2.03125q0 -0.734375 0.328125 -1.328125q0.328125 -0.59375 0.859375 -0.953125q0.53125 -0.359375 1.203125 -0.546875q0.5 -0.140625 1.484375 -0.25q2.03125 -0.25 2.984375 -0.578125q0 -0.34375 0 -0.4375q0 -1.015625 -0.46875 -1.4375q-0.640625 -0.5625 -1.90625 -0.5625q-1.171875 0 -1.734375 0.40625q-0.5625 0.40625 -0.828125 1.46875l-1.640625 -0.234375q0.234375 -1.046875 0.734375 -1.6875q0.515625 -0.640625 1.46875 -0.984375q0.96875 -0.359375 2.25 -0.359375q1.265625 0 2.046875 0.296875q0.78125 0.296875 1.15625 0.75q0.375 0.453125 0.515625 1.140625q0.09375 0.421875 0.09375 1.53125l0 2.234375q0 2.328125 0.09375 2.953125q0.109375 0.609375 0.4375 1.171875l-1.75 0q-0.265625 -0.515625 -0.328125 -1.21875zm-0.140625 -3.71875q-0.90625 0.359375 -2.734375 0.625q-1.03125 0.140625 -1.453125 0.328125q-0.421875 0.1875 -0.65625 0.546875q-0.234375 0.359375 -0.234375 0.796875q0 0.671875 0.5 1.125q0.515625 0.4375 1.484375 0.4375q0.96875 0 1.71875 -0.421875q0.75 -0.4375 1.109375 -1.15625q0.265625 -0.578125 0.265625 -1.671875l0 -0.609375zm4.0944214 -6.75l0 -1.90625l1.671875 0l0 1.90625l-1.671875 0zm0 11.6875l0 -9.859375l1.671875 0l0 9.859375l-1.671875 0zm4.1292114 0l0 -9.859375l1.5 0l0 1.40625q1.09375 -1.625 3.140625 -1.625q0.890625 0 1.640625 0.328125q0.75 0.3125 1.109375 0.84375q0.375 0.515625 0.53125 1.21875q0.09375 0.46875 0.09375 1.625l0 6.0625l-1.671875 0l0 -6.0q0 -1.015625 -0.203125 -1.515625q-0.1875 -0.515625 -0.6875 -0.8125q-0.5 -0.296875 -1.171875 -0.296875q-1.0625 0 -1.84375 0.671875q-0.765625 0.671875 -0.765625 2.578125l0 5.375l-1.671875 0zm16.074646 0l0 -13.59375l1.8125 0l0 13.59375l-1.8125 0zm4.8864136 0l0 -13.59375l4.6875 0q1.578125 0 2.421875 0.1875q1.15625 0.265625 1.984375 0.96875q1.078125 0.921875 1.609375 2.34375q0.53125 1.40625 0.53125 3.21875q0 1.546875 -0.359375 2.75q-0.359375 1.1875 -0.921875 1.984375q-0.5625 0.78125 -1.234375 1.234375q-0.671875 0.4375 -1.625 0.671875q-0.953125 0.234375 -2.1875 0.234375l-4.90625 0zm1.796875 -1.609375l2.90625 0q1.34375 0 2.109375 -0.25q0.765625 -0.25 1.21875 -0.703125q0.640625 -0.640625 1.0 -1.71875q0.359375 -1.078125 0.359375 -2.625q0 -2.125 -0.703125 -3.265625q-0.703125 -1.15625 -1.703125 -1.546875q-0.71875 -0.28125 -2.328125 -0.28125l-2.859375 0l0 10.390625zm20.238586 -6.390625l-8.96875 0l0 -1.5625l8.96875 0l0 1.5625zm0 4.125l-8.96875 0l0 -1.546875l8.96875 0l0 1.546875zm10.4262085 2.265625l0 1.609375l-8.984375 0q-0.015625 -0.609375 0.1875 -1.15625q0.34375 -0.921875 1.09375 -1.8125q0.765625 -0.890625 2.1875 -2.0625q2.21875 -1.8125 3.0 -2.875q0.78125 -1.0625 0.78125 -2.015625q0 -0.984375 -0.71875 -1.671875q-0.703125 -0.6875 -1.84375 -0.6875q-1.203125 0 -1.9375 0.734375q-0.71875 0.71875 -0.71875 2.0l-1.71875 -0.171875q0.171875 -1.921875 1.328125 -2.921875q1.15625 -1.015625 3.09375 -1.015625q1.953125 0 3.09375 1.09375q1.140625 1.078125 1.140625 2.6875q0 0.8125 -0.34375 1.609375q-0.328125 0.78125 -1.109375 1.65625q-0.765625 0.859375 -2.5625 2.390625q-1.5 1.265625 -1.9375 1.71875q-0.421875 0.4375 -0.703125 0.890625l6.671875 0z" fill-rule="nonzero"></path><path fill="#eeece1" d="m588.2126 113.93978l0 0c0 -4.035675 3.2715454 -7.3072357 7.307251 -7.3072357l44.283142 0c1.9380493 0 3.7966309 0.76986694 5.166992 2.140236c1.3704224 1.3703766 2.1402588 3.2289963 2.1402588 5.167l0 29.22805c0 4.035675 -3.2715454 7.3072357 -7.307251 7.3072357l-44.283142 0l0 0c-4.0357056 0 -7.307251 -3.2715607 -7.307251 -7.3072357z" fill-rule="evenodd"></path><path stroke="#1f497d" stroke-width="2.0" stroke-linejoin="round" stroke-linecap="butt" d="m588.2126 113.93978l0 0c0 -4.035675 3.2715454 -7.3072357 7.307251 -7.3072357l44.283142 0c1.9380493 0 3.7966309 0.76986694 5.166992 2.140236c1.3704224 1.3703766 2.1402588 3.2289963 2.1402588 5.167l0 29.22805c0 4.035675 -3.2715454 7.3072357 -7.307251 7.3072357l-44.283142 0l0 0c-4.0357056 0 -7.307251 -3.2715607 -7.307251 -7.3072357z" fill-rule="evenodd"></path><path fill="#000000" d="m608.76056 135.4738l0 -13.59375l5.125 0q1.359375 0 2.078125 0.125q1.0 0.171875 1.671875 0.640625q0.671875 0.46875 1.078125 1.3125q0.421875 0.84375 0.421875 1.84375q0 1.734375 -1.109375 2.9375q-1.09375 1.203125 -3.984375 1.203125l-3.484375 0l0 5.53125l-1.796875 0zm1.796875 -7.140625l3.515625 0q1.75 0 2.46875 -0.640625q0.734375 -0.65625 0.734375 -1.828125q0 -0.859375 -0.4375 -1.46875q-0.421875 -0.609375 -1.125 -0.796875q-0.453125 -0.125 -1.671875 -0.125l-3.484375 0l0 4.859375z" fill-rule="nonzero"></path><path fill="#000000" d="m619.7198 142.4738l3.296875 -8.59375l1.21875 0l3.515625 8.59375l-1.28125 0l-1.015625 -2.609375l-3.578125 0l-0.953125 2.609375l-1.203125 0zm2.484375 -3.53125l2.90625 0l-0.890625 -2.375q-0.421875 -1.078125 -0.609375 -1.78125q-0.171875 0.828125 -0.46875 1.640625l-0.9375 2.515625z" fill-rule="nonzero"></path><path fill="#000000" fill-opacity="0.0" d="m617.66144 150.47507l79.02362 57.637787" fill-rule="evenodd"></path><path stroke="#b7b7b7" stroke-width="2.0" stroke-linejoin="round" stroke-linecap="butt" d="m617.66144 150.47507l79.02362 57.637787" fill-rule="evenodd"></path><path fill="#000000" fill-opacity="0.0" d="m755.5958 208.1076l18.929138 -96.18897" fill-rule="evenodd"></path><path stroke="#b7b7b7" stroke-width="2.0" stroke-linejoin="round" stroke-linecap="butt" d="m755.5958 208.1076l18.929138 -96.18897" fill-rule="evenodd"></path><path fill="#eeece1" d="m774.52496 97.30461l0 0c0 -4.035675 3.2715454 -7.3072357 7.30719 -7.3072357l44.283203 0c1.9379883 0 3.7966309 0.76986694 5.166992 2.140236c1.3703613 1.3703766 2.1401978 3.2289963 2.1401978 5.167l0 29.22805c0 4.0356674 -3.2715454 7.307228 -7.30719 7.307228l-44.283203 0l0 0c-4.0356445 0 -7.30719 -3.2715607 -7.30719 -7.307228z" fill-rule="evenodd"></path><path stroke="#1f497d" stroke-width="2.0" stroke-linejoin="round" stroke-linecap="butt" d="m774.52496 97.30461l0 0c0 -4.035675 3.2715454 -7.3072357 7.30719 -7.3072357l44.283203 0c1.9379883 0 3.7966309 0.76986694 5.166992 2.140236c1.3703613 1.3703766 2.1401978 3.2289963 2.1401978 5.167l0 29.22805c0 4.0356674 -3.2715454 7.307228 -7.30719 7.307228l-44.283203 0l0 0c-4.0356445 0 -7.30719 -3.2715607 -7.30719 -7.307228z" fill-rule="evenodd"></path><path fill="#000000" d="m795.07294 118.83863l0 -13.59375l5.125 0q1.359375 0 2.078125 0.125q1.0 0.171875 1.671875 0.640625q0.671875 0.46875 1.078125 1.3125q0.421875 0.84375 0.421875 1.84375q0 1.734375 -1.109375 2.9375q-1.09375 1.203125 -3.984375 1.203125l-3.484375 0l0 5.53125l-1.796875 0zm1.796875 -7.140625l3.515625 0q1.75 0 2.46875 -0.640625q0.734375 -0.65625 0.734375 -1.828125q0 -0.859375 -0.4375 -1.46875q-0.421875 -0.609375 -1.125 -0.796875q-0.453125 -0.125 -1.671875 -0.125l-3.484375 0l0 4.859375z" fill-rule="nonzero"></path><path fill="#000000" d="m806.9227 125.83863l0 -8.59375l3.234375 0q0.984375 0 1.578125 0.265625q0.59375 0.265625 0.921875 0.8125q0.34375 0.53125 0.34375 1.125q0 0.546875 -0.296875 1.03125q-0.296875 0.484375 -0.90625 0.78125q0.78125 0.234375 1.1875 0.796875q0.421875 0.546875 0.421875 1.296875q0 0.59375 -0.25 1.125q-0.25 0.515625 -0.625 0.796875q-0.375 0.28125 -0.953125 0.421875q-0.5625 0.140625 -1.375 0.140625l-3.28125 0zm1.140625 -4.984375l1.859375 0q0.75 0 1.078125 -0.09375q0.4375 -0.125 0.65625 -0.421875q0.21875 -0.3125 0.21875 -0.765625q0 -0.421875 -0.203125 -0.75q-0.203125 -0.328125 -0.59375 -0.4375q-0.375 -0.125 -1.296875 -0.125l-1.71875 0l0 2.59375zm0 3.96875l2.140625 0q0.546875 0 0.765625 -0.046875q0.40625 -0.0625 0.65625 -0.21875q0.265625 -0.171875 0.4375 -0.484375q0.171875 -0.3125 0.171875 -0.71875q0 -0.484375 -0.25 -0.84375q-0.234375 -0.359375 -0.671875 -0.5q-0.4375 -0.140625 -1.265625 -0.140625l-1.984375 0l0 2.953125z" fill-rule="nonzero"></path><path fill="#eeece1" d="m696.6982 193.49359l0 0c0 -4.035675 3.2715454 -7.3072357 7.30719 -7.3072357l44.283203 0c1.9379883 0 3.7966309 0.76986694 5.166992 2.1402283c1.3703613 1.3703766 2.1402588 3.229004 2.1402588 5.1670074l0 29.228043c0 4.035675 -3.2716064 7.3072357 -7.307251 7.3072357l-44.283203 0l0 0c-4.0356445 0 -7.30719 -3.2715607 -7.30719 -7.3072357z" fill-rule="evenodd"></path><path stroke="#1f497d" stroke-width="2.0" stroke-linejoin="round" stroke-linecap="butt" d="m696.6982 193.49359l0 0c0 -4.035675 3.2715454 -7.3072357 7.30719 -7.3072357l44.283203 0c1.9379883 0 3.7966309 0.76986694 5.166992 2.1402283c1.3703613 1.3703766 2.1402588 3.229004 2.1402588 5.1670074l0 29.228043c0 4.035675 -3.2716064 7.3072357 -7.307251 7.3072357l-44.283203 0l0 0c-4.0356445 0 -7.30719 -3.2715607 -7.30719 -7.3072357z" fill-rule="evenodd"></path><path fill="#000000" d="m716.903 215.0276l0 -13.59375l5.125 0q1.359375 0 2.078125 0.125q1.0 0.171875 1.671875 0.640625q0.671875 0.46875 1.078125 1.3125q0.421875 0.84375 0.421875 1.84375q0 1.734375 -1.109375 2.9375q-1.09375 1.203125 -3.984375 1.203125l-3.484375 0l0 5.53125l-1.796875 0zm1.796875 -7.140625l3.515625 0q1.75 0 2.46875 -0.640625q0.734375 -0.65625 0.734375 -1.828125q0 -0.859375 -0.4375 -1.46875q-0.421875 -0.609375 -1.125 -0.796875q-0.453125 -0.125 -1.671875 -0.125l-3.484375 0l0 4.859375z" fill-rule="nonzero"></path><path fill="#000000" d="m734.94037 219.01198l1.125 0.296875q-0.359375 1.390625 -1.28125 2.125q-0.921875 0.734375 -2.265625 0.734375q-1.390625 0 -2.265625 -0.5625q-0.875 -0.5625 -1.328125 -1.625q-0.453125 -1.078125 -0.453125 -2.3125q0 -1.34375 0.515625 -2.34375q0.515625 -1.0 1.453125 -1.515625q0.953125 -0.515625 2.09375 -0.515625q1.28125 0 2.15625 0.65625q0.890625 0.65625 1.234375 1.84375l-1.125 0.265625q-0.296875 -0.9375 -0.875 -1.359375q-0.5625 -0.4375 -1.421875 -0.4375q-0.984375 0 -1.65625 0.484375q-0.65625 0.46875 -0.9375 1.265625q-0.265625 0.796875 -0.265625 1.65625q0 1.09375 0.3125 1.90625q0.328125 0.8125 1.0 1.21875q0.671875 0.40625 1.46875 0.40625q0.953125 0 1.609375 -0.546875q0.671875 -0.546875 0.90625 -1.640625z" fill-rule="nonzero"></path><path fill="#000000" fill-opacity="0.0" d="m647.1102 128.5538l127.40161 -16.629921" fill-rule="evenodd"></path><path stroke="#b7b7b7" stroke-width="2.0" stroke-linejoin="round" stroke-linecap="butt" d="m647.1102 128.5538l127.40161 -16.629921" fill-rule="evenodd"></path><path fill="#000000" fill-opacity="0.0" d="m290.66776 527.0024l0 0c-2.804596 -18.591644 6.403473 -36.996216 23.716858 -47.404022c17.313385 -10.407776 39.69571 -10.9935 57.649353 -1.5085754l0 0c6.3597107 -10.809937 17.999878 -18.273468 31.399506 -20.132996c13.399658 -1.8595276 26.984985 2.103363 36.646667 10.689941l0 0c5.4176636 -9.800995 16.055359 -16.386017 28.138245 -17.418335c12.082886 -1.0323486 23.90097 3.6341248 31.26059 12.343445l0 0c9.787781 -10.389008 25.360443 -14.763214 39.979523 -11.229889c14.619141 3.5333557 25.658997 14.33963 28.34259 27.74292l0 0c11.991699 2.950531 21.98059 10.451141 27.385742 20.563965c5.4052124 10.112793 5.696472 21.845734 0.798584 32.16739l0 0c11.80835 13.863159 14.570618 32.33557 7.2559814 48.523743c-7.314636 16.188232 -23.607239 27.660034 -42.79773 30.1344c-0.1352539 15.193176 -9.372498 29.134277 -24.151367 36.449768c-14.77887 7.3154907 -32.791534 6.862976 -47.095123 -1.1829834c-6.09256 18.196472 -23.24112 31.585205 -44.036865 34.381897c-20.795715 2.7966309 -41.51059 -5.500183 -53.194977 -21.30597c-14.322632 7.7907104 -31.508606 10.034973 -47.68112 6.2265015c-16.172485 -3.8084106 -29.969238 -13.348816 -38.277924 -26.468994l0 0c-14.635956 1.5449219 -28.786865 -5.295166 -35.42975 -17.12555c-6.642853 -11.830444 -4.363556 -26.132751 5.706726 -35.808838l0 0c-13.055634 -6.9314575 -19.717407 -20.68573 -16.511475 -34.090576c3.2059631 -13.404785 15.553131 -23.422546 30.602966 -24.829407z" fill-rule="evenodd"></path><path fill="#000000" fill-opacity="0.0" d="m276.28696 586.6389l0 0c6.16098 3.270935 13.278381 4.7547607 20.396545 4.252136m9.323273 48.68341c3.0610657 -0.32312012 6.061493 -1.0073853 8.92392 -2.0350952m77.03085 22.276733c-2.1529846 -2.9123535 -3.955536 -6.024475 -5.377014 -9.283325m102.61258 -3.793213l0 0c1.1107483 -3.3174438 1.8304443 -6.7318726 2.1470337 -10.186218m69.09677 -25.079224c0.14398193 -16.175476 -10.041016 -30.985962 -26.180298 -38.069824m61.72168 -40.58661c-2.6137085 5.5080566 -6.603821 10.394165 -11.657471 14.275269m-16.524414 -67.00809l0 0c0.44537354 2.2242737 0.6514282 4.4819946 0.6154785 6.7418213m-68.93643 -23.25418l0 0c-2.4415588 2.5915527 -4.4530945 5.4875793 -5.9719543 8.5979m-53.4274 -3.5241394l0 0c-1.3011475 2.3538818 -2.272766 4.844696 -2.892456 7.415039m-65.154755 2.0281982l0 0c3.7989807 2.007019 7.313568 4.422638 10.466522 7.193878m-91.831665 41.718994l0 0c0.38656616 2.562378 0.99731445 5.0932007 1.8265991 7.5687256" fill-rule="evenodd"></path><path stroke="#595959" stroke-width="1.0" stroke-linejoin="round" stroke-linecap="butt" d="m290.66776 527.0024l0 0c-2.804596 -18.591644 6.403473 -36.996216 23.716858 -47.404022c17.313385 -10.407776 39.69571 -10.9935 57.649353 -1.5085754l0 0c6.3597107 -10.809937 17.999878 -18.273468 31.399506 -20.132996c13.399658 -1.8595276 26.984985 2.103363 36.646667 10.689941l0 0c5.4176636 -9.800995 16.055359 -16.386017 28.138245 -17.418335c12.082886 -1.0323486 23.90097 3.6341248 31.26059 12.343445l0 0c9.787781 -10.389008 25.360443 -14.763214 39.979523 -11.229889c14.619141 3.5333557 25.658997 14.33963 28.34259 27.74292l0 0c11.991699 2.950531 21.98059 10.451141 27.385742 20.563965c5.4052124 10.112793 5.696472 21.845734 0.798584 32.16739l0 0c11.80835 13.863159 14.570618 32.33557 7.2559814 48.523743c-7.314636 16.188232 -23.607239 27.660034 -42.79773 30.1344c-0.1352539 15.193176 -9.372498 29.134277 -24.151367 36.449768c-14.77887 7.3154907 -32.791534 6.862976 -47.095123 -1.1829834c-6.09256 18.196472 -23.24112 31.585205 -44.036865 34.381897c-20.795715 2.7966309 -41.51059 -5.500183 -53.194977 -21.30597c-14.322632 7.7907104 -31.508606 10.034973 -47.68112 6.2265015c-16.172485 -3.8084106 -29.969238 -13.348816 -38.277924 -26.468994l0 0c-14.635956 1.5449219 -28.786865 -5.295166 -35.42975 -17.12555c-6.642853 -11.830444 -4.363556 -26.132751 5.706726 -35.808838l0 0c-13.055634 -6.9314575 -19.717407 -20.68573 -16.511475 -34.090576c3.2059631 -13.404785 15.553131 -23.422546 30.602966 -24.829407z" fill-rule="evenodd"></path><path stroke="#595959" stroke-width="1.0" stroke-linejoin="round" stroke-linecap="butt" d="m276.28696 586.6389l0 0c6.16098 3.270935 13.278381 4.7547607 20.396545 4.252136m9.323273 48.68341c3.0610657 -0.32312012 6.061493 -1.0073853 8.92392 -2.0350952m77.03085 22.276733c-2.1529846 -2.9123535 -3.955536 -6.024475 -5.377014 -9.283325m102.61258 -3.793213l0 0c1.1107483 -3.3174438 1.8304443 -6.7318726 2.1470337 -10.186218m69.09677 -25.079224c0.14398193 -16.175476 -10.041016 -30.985962 -26.180298 -38.069824m61.72168 -40.58661c-2.6137085 5.5080566 -6.603821 10.394165 -11.657471 14.275269m-16.524414 -67.00809l0 0c0.44537354 2.2242737 0.6514282 4.4819946 0.6154785 6.7418213m-68.93643 -23.25418l0 0c-2.4415588 2.5915527 -4.4530945 5.4875793 -5.9719543 8.5979m-53.4274 -3.5241394l0 0c-1.3011475 2.3538818 -2.272766 4.844696 -2.892456 7.415039m-65.154755 2.0281982l0 0c3.7989807 2.007019 7.313568 4.422638 10.466522 7.193878m-91.831665 41.718994l0 0c0.38656616 2.562378 0.99731445 5.0932007 1.8265991 7.5687256" fill-rule="evenodd"></path><path fill="#000000" d="m366.04193 512.0626l0 -13.59375l4.6875 0q1.578125 0 2.421875 0.1875q1.15625 0.265625 1.984375 0.96875q1.078125 0.921875 1.609375 2.34375q0.53125 1.40625 0.53125 3.21875q0 1.546875 -0.359375 2.75q-0.359375 1.1875 -0.921875 1.984375q-0.5625 0.78125 -1.234375 1.234375q-0.671875 0.4375 -1.625 0.671875q-0.953125 0.234375 -2.1875 0.234375l-4.90625 0zm1.796875 -1.609375l2.90625 0q1.34375 0 2.109375 -0.25q0.765625 -0.25 1.21875 -0.703125q0.640625 -0.640625 1.0 -1.71875q0.359375 -1.078125 0.359375 -2.625q0 -2.125 -0.703125 -3.265625q-0.703125 -1.15625 -1.703125 -1.546875q-0.71875 -0.28125 -2.328125 -0.28125l-2.859375 0l0 10.390625zm10.832336 -3.3125q0 -2.734375 1.53125 -4.0625q1.265625 -1.09375 3.09375 -1.09375q2.03125 0 3.3125 1.34375q1.296875 1.328125 1.296875 3.671875q0 1.90625 -0.578125 3.0q-0.5625 1.078125 -1.65625 1.6875q-1.078125 0.59375 -2.375 0.59375q-2.0625 0 -3.34375 -1.328125q-1.28125 -1.328125 -1.28125 -3.8125zm1.71875 0q0 1.890625 0.828125 2.828125q0.828125 0.9375 2.078125 0.9375q1.25 0 2.0625 -0.9375q0.828125 -0.953125 0.828125 -2.890625q0 -1.828125 -0.828125 -2.765625q-0.828125 -0.9375 -2.0625 -0.9375q-1.25 0 -2.078125 0.9375q-0.828125 0.9375 -0.828125 2.828125zm9.281952 4.921875l0 -9.859375l1.5 0l0 1.390625q0.453125 -0.71875 1.21875 -1.15625q0.78125 -0.453125 1.765625 -0.453125q1.09375 0 1.796875 0.453125q0.703125 0.453125 0.984375 1.28125q1.171875 -1.734375 3.046875 -1.734375q1.46875 0 2.25 0.8125q0.796875 0.8125 0.796875 2.5l0 6.765625l-1.671875 0l0 -6.203125q0 -1.0 -0.15625 -1.4375q-0.15625 -0.453125 -0.59375 -0.71875q-0.421875 -0.265625 -1.0 -0.265625q-1.03125 0 -1.71875 0.6875q-0.6875 0.6875 -0.6875 2.21875l0 5.71875l-1.671875 0l0 -6.40625q0 -1.109375 -0.40625 -1.65625q-0.40625 -0.5625 -1.34375 -0.5625q-0.703125 0 -1.3125 0.375q-0.59375 0.359375 -0.859375 1.078125q-0.265625 0.71875 -0.265625 2.0625l0 5.109375l-1.671875 0zm21.978302 -1.21875q-0.9375 0.796875 -1.796875 1.125q-0.859375 0.3125 -1.84375 0.3125q-1.609375 0 -2.484375 -0.78125q-0.875 -0.796875 -0.875 -2.03125q0 -0.734375 0.328125 -1.328125q0.328125 -0.59375 0.859375 -0.953125q0.53125 -0.359375 1.203125 -0.546875q0.5 -0.140625 1.484375 -0.25q2.03125 -0.25 2.984375 -0.578125q0 -0.34375 0 -0.4375q0 -1.015625 -0.46875 -1.4375q-0.640625 -0.5625 -1.90625 -0.5625q-1.171875 0 -1.734375 0.40625q-0.5625 0.40625 -0.828125 1.46875l-1.640625 -0.234375q0.234375 -1.046875 0.734375 -1.6875q0.515625 -0.640625 1.46875 -0.984375q0.96875 -0.359375 2.25 -0.359375q1.265625 0 2.046875 0.296875q0.78125 0.296875 1.15625 0.75q0.375 0.453125 0.515625 1.140625q0.09375 0.421875 0.09375 1.53125l0 2.234375q0 2.328125 0.09375 2.953125q0.109375 0.609375 0.4375 1.171875l-1.75 0q-0.265625 -0.515625 -0.328125 -1.21875zm-0.140625 -3.71875q-0.90625 0.359375 -2.734375 0.625q-1.03125 0.140625 -1.453125 0.328125q-0.421875 0.1875 -0.65625 0.546875q-0.234375 0.359375 -0.234375 0.796875q0 0.671875 0.5 1.125q0.515625 0.4375 1.484375 0.4375q0.96875 0 1.71875 -0.421875q0.75 -0.4375 1.109375 -1.15625q0.265625 -0.578125 0.265625 -1.671875l0 -0.609375zm4.0944824 -6.75l0 -1.90625l1.671875 0l0 1.90625l-1.671875 0zm0 11.6875l0 -9.859375l1.671875 0l0 9.859375l-1.671875 0zm4.129181 0l0 -9.859375l1.5 0l0 1.40625q1.09375 -1.625 3.140625 -1.625q0.890625 0 1.640625 0.328125q0.75 0.3125 1.109375 0.84375q0.375 0.515625 0.53125 1.21875q0.09375 0.46875 0.09375 1.625l0 6.0625l-1.671875 0l0 -6.0q0 -1.015625 -0.203125 -1.515625q-0.1875 -0.515625 -0.6875 -0.8125q-0.5 -0.296875 -1.171875 -0.296875q-1.0625 0 -1.84375 0.671875q-0.765625 0.671875 -0.765625 2.578125l0 5.375l-1.671875 0zm16.074646 0l0 -13.59375l1.8125 0l0 13.59375l-1.8125 0zm4.886444 0l0 -13.59375l4.6875 0q1.578125 0 2.421875 0.1875q1.15625 0.265625 1.984375 0.96875q1.078125 0.921875 1.609375 2.34375q0.53125 1.40625 0.53125 3.21875q0 1.546875 -0.359375 2.75q-0.359375 1.1875 -0.921875 1.984375q-0.5625 0.78125 -1.234375 1.234375q-0.671875 0.4375 -1.625 0.671875q-0.953125 0.234375 -2.1875 0.234375l-4.90625 0zm1.796875 -1.609375l2.90625 0q1.34375 0 2.109375 -0.25q0.765625 -0.25 1.21875 -0.703125q0.640625 -0.640625 1.0 -1.71875q0.359375 -1.078125 0.359375 -2.625q0 -2.125 -0.703125 -3.265625q-0.703125 -1.15625 -1.703125 -1.546875q-0.71875 -0.28125 -2.328125 -0.28125l-2.859375 0l0 10.390625zm20.238556 -6.390625l-8.96875 0l0 -1.5625l8.96875 0l0 1.5625zm0 4.125l-8.96875 0l0 -1.546875l8.96875 0l0 1.546875zm2.3168335 3.875l0 -13.59375l1.84375 0l7.140625 10.671875l0 -10.671875l1.71875 0l0 13.59375l-1.84375 0l-7.140625 -10.6875l0 10.6875l-1.71875 0z" fill-rule="nonzero"></path><path fill="#eeece1" d="m303.44357 546.8794l0 0c0 -4.0356445 3.2715454 -7.30719 7.3072205 -7.30719l44.283173 0c1.9380188 0 3.7966309 0.7698364 5.166992 2.1401978c1.3703918 1.3703613 2.1402588 3.229004 2.1402588 5.166992l0 29.228088c0 4.0356445 -3.271576 7.30719 -7.307251 7.30719l-44.283173 0l0 0c-4.035675 0 -7.3072205 -3.2715454 -7.3072205 -7.30719z" fill-rule="evenodd"></path><path stroke="#1f497d" stroke-width="2.0" stroke-linejoin="round" stroke-linecap="butt" d="m303.44357 546.8794l0 0c0 -4.0356445 3.2715454 -7.30719 7.3072205 -7.30719l44.283173 0c1.9380188 0 3.7966309 0.7698364 5.166992 2.1401978c1.3703918 1.3703613 2.1402588 3.229004 2.1402588 5.166992l0 29.228088c0 4.0356445 -3.271576 7.30719 -7.307251 7.30719l-44.283173 0l0 0c-4.035675 0 -7.3072205 -3.2715454 -7.3072205 -7.30719z" fill-rule="evenodd"></path><path fill="#000000" d="m323.99155 568.41345l0 -13.59375l5.125 0q1.359375 0 2.078125 0.125q1.0 0.171875 1.671875 0.640625q0.671875 0.46875 1.078125 1.3125q0.421875 0.84375 0.421875 1.84375q0 1.734375 -1.109375 2.9375q-1.09375 1.203125 -3.984375 1.203125l-3.484375 0l0 5.53125l-1.796875 0zm1.796875 -7.140625l3.515625 0q1.75 0 2.46875 -0.640625q0.734375 -0.65625 0.734375 -1.828125q0 -0.859375 -0.4375 -1.46875q-0.421875 -0.609375 -1.125 -0.796875q-0.453125 -0.125 -1.671875 -0.125l-3.484375 0l0 4.859375z" fill-rule="nonzero"></path><path fill="#000000" d="m334.95074 575.41345l3.296875 -8.59375l1.21875 0l3.515625 8.59375l-1.28125 0l-1.015625 -2.609375l-3.578125 0l-0.953125 2.609375l-1.203125 0zm2.484375 -3.53125l2.90625 0l-0.890625 -2.375q-0.421875 -1.078125 -0.609375 -1.78125q-0.171875 0.828125 -0.46875 1.640625l-0.9375 2.515625z" fill-rule="nonzero"></path><path fill="#000000" fill-opacity="0.0" d="m332.8924 583.4147l79.02362 57.637817" fill-rule="evenodd"></path><path stroke="#b7b7b7" stroke-width="2.0" stroke-linejoin="round" stroke-linecap="butt" d="m332.8924 583.4147l79.02362 57.637817" fill-rule="evenodd"></path><path fill="#000000" fill-opacity="0.0" d="m470.82678 641.04724l18.929138 -96.188965" fill-rule="evenodd"></path><path stroke="#b7b7b7" stroke-width="2.0" stroke-linejoin="round" stroke-linecap="butt" d="m470.82678 641.04724l18.929138 -96.188965" fill-rule="evenodd"></path><path fill="#eeece1" d="m489.75592 530.24426l0 0c0 -4.0357056 3.2715454 -7.307251 7.3072205 -7.307251l44.283173 0c1.9379883 0 3.7966309 0.7698364 5.166992 2.1402588c1.3703613 1.3703613 2.1402588 3.2289429 2.1402588 5.166992l0 29.228027c0 4.0357056 -3.2716064 7.307251 -7.307251 7.307251l-44.283173 0l0 0c-4.035675 0 -7.3072205 -3.2715454 -7.3072205 -7.307251z" fill-rule="evenodd"></path><path stroke="#1f497d" stroke-width="2.0" stroke-linejoin="round" stroke-linecap="butt" d="m489.75592 530.24426l0 0c0 -4.0357056 3.2715454 -7.307251 7.3072205 -7.307251l44.283173 0c1.9379883 0 3.7966309 0.7698364 5.166992 2.1402588c1.3703613 1.3703613 2.1402588 3.2289429 2.1402588 5.166992l0 29.228027c0 4.0357056 -3.2716064 7.307251 -7.307251 7.307251l-44.283173 0l0 0c-4.035675 0 -7.3072205 -3.2715454 -7.3072205 -7.307251z" fill-rule="evenodd"></path><path fill="#000000" d="m510.3039 551.77826l0 -13.59375l5.125 0q1.359375 0 2.078125 0.125q1.0 0.171875 1.671875 0.640625q0.671875 0.46875 1.078125 1.3125q0.421875 0.84375 0.421875 1.84375q0 1.734375 -1.109375 2.9375q-1.09375 1.203125 -3.984375 1.203125l-3.484375 0l0 5.53125l-1.796875 0zm1.796875 -7.140625l3.515625 0q1.75 0 2.46875 -0.640625q0.734375 -0.65625 0.734375 -1.828125q0 -0.859375 -0.4375 -1.46875q-0.421875 -0.609375 -1.125 -0.796875q-0.453125 -0.125 -1.671875 -0.125l-3.484375 0l0 4.859375z" fill-rule="nonzero"></path><path fill="#000000" d="m522.1537 558.77826l0 -8.59375l3.234375 0q0.984375 0 1.578125 0.265625q0.59375 0.265625 0.921875 0.8125q0.34375 0.53125 0.34375 1.125q0 0.546875 -0.296875 1.03125q-0.296875 0.484375 -0.90625 0.78125q0.78125 0.234375 1.1875 0.796875q0.421875 0.546875 0.421875 1.296875q0 0.59375 -0.25 1.125q-0.25 0.515625 -0.625 0.796875q-0.375 0.28125 -0.953125 0.421875q-0.5625 0.140625 -1.375 0.140625l-3.28125 0zm1.140625 -4.984375l1.859375 0q0.75 0 1.078125 -0.09375q0.4375 -0.125 0.65625 -0.421875q0.21875 -0.3125 0.21875 -0.765625q0 -0.421875 -0.203125 -0.75q-0.203125 -0.328125 -0.59375 -0.4375q-0.375 -0.125 -1.296875 -0.125l-1.71875 0l0 2.59375zm0 3.96875l2.140625 0q0.546875 0 0.765625 -0.046875q0.40625 -0.0625 0.65625 -0.21875q0.265625 -0.171875 0.4375 -0.484375q0.171875 -0.3125 0.171875 -0.71875q0 -0.484375 -0.25 -0.84375q-0.234375 -0.359375 -0.671875 -0.5q-0.4375 -0.140625 -1.265625 -0.140625l-1.984375 0l0 2.953125z" fill-rule="nonzero"></path><path fill="#eeece1" d="m411.92914 626.4332l0 0c0 -4.0357056 3.2715454 -7.307251 7.3072205 -7.307251l44.283173 0c1.9380188 0 3.7966309 0.76989746 5.166992 2.1402588c1.3703918 1.3703613 2.1402588 3.229004 2.1402588 5.166992l0 29.228027c0 4.0357056 -3.271576 7.307251 -7.307251 7.307251l-44.283173 0l0 0c-4.035675 0 -7.3072205 -3.2715454 -7.3072205 -7.307251z" fill-rule="evenodd"></path><path stroke="#1f497d" stroke-width="2.0" stroke-linejoin="round" stroke-linecap="butt" d="m411.92914 626.4332l0 0c0 -4.0357056 3.2715454 -7.307251 7.3072205 -7.307251l44.283173 0c1.9380188 0 3.7966309 0.76989746 5.166992 2.1402588c1.3703918 1.3703613 2.1402588 3.229004 2.1402588 5.166992l0 29.228027c0 4.0357056 -3.271576 7.307251 -7.307251 7.307251l-44.283173 0l0 0c-4.035675 0 -7.3072205 -3.2715454 -7.3072205 -7.307251z" fill-rule="evenodd"></path><path fill="#000000" d="m432.134 647.9672l0 -13.59375l5.125 0q1.359375 0 2.078125 0.125q1.0 0.171875 1.671875 0.640625q0.671875 0.46875 1.078125 1.3125q0.421875 0.84375 0.421875 1.84375q0 1.734375 -1.109375 2.9375q-1.09375 1.203125 -3.984375 1.203125l-3.484375 0l0 5.53125l-1.796875 0zm1.796875 -7.140625l3.515625 0q1.75 0 2.46875 -0.640625q0.734375 -0.65625 0.734375 -1.828125q0 -0.859375 -0.4375 -1.46875q-0.421875 -0.609375 -1.125 -0.796875q-0.453125 -0.125 -1.671875 -0.125l-3.484375 0l0 4.859375z" fill-rule="nonzero"></path><path fill="#000000" d="m450.17133 651.9516l1.125 0.296875q-0.359375 1.390625 -1.28125 2.125q-0.921875 0.734375 -2.265625 0.734375q-1.390625 0 -2.265625 -0.5625q-0.875 -0.5625 -1.328125 -1.625q-0.453125 -1.078125 -0.453125 -2.3125q0 -1.34375 0.515625 -2.34375q0.515625 -1.0 1.453125 -1.515625q0.953125 -0.515625 2.09375 -0.515625q1.28125 0 2.15625 0.65625q0.890625 0.65625 1.234375 1.84375l-1.125 0.265625q-0.296875 -0.9375 -0.875 -1.359375q-0.5625 -0.4375 -1.421875 -0.4375q-0.984375 0 -1.65625 0.484375q-0.65625 0.46875 -0.9375 1.265625q-0.265625 0.796875 -0.265625 1.65625q0 1.09375 0.3125 1.90625q0.328125 0.8125 1.0 1.21875q0.671875 0.40625 1.46875 0.40625q0.953125 0 1.609375 -0.546875q0.671875 -0.546875 0.90625 -1.640625z" fill-rule="nonzero"></path><path fill="#000000" fill-opacity="0.0" d="m362.34122 561.4934l127.40155 -16.629883" fill-rule="evenodd"></path><path stroke="#b7b7b7" stroke-width="2.0" stroke-linejoin="round" stroke-linecap="butt" d="m362.34122 561.4934l127.40155 -16.629883" fill-rule="evenodd"></path><path fill="#000000" fill-opacity="0.0" d="m251.76392 228.33858l58.86615 35.685043" fill-rule="evenodd"></path><path stroke="#0000ff" stroke-width="1.0" stroke-linejoin="round" stroke-linecap="butt" d="m251.76392 228.33858l53.73529 32.57469" fill-rule="evenodd"></path><path fill="#0000ff" stroke="#0000ff" stroke-width="1.0" stroke-linecap="butt" d="m304.64297 262.32574l4.736969 0.94003296l-3.024475 -3.7649841z" fill-rule="evenodd"></path><path fill="#000000" fill-opacity="0.0" d="m296.99692 272.1811l-53.732285 -32.50392" fill-rule="evenodd"></path><path stroke="#0000ff" stroke-width="1.0" stroke-linejoin="round" stroke-linecap="butt" d="m296.99692 272.1811l-48.598495 -29.398392" fill-rule="evenodd"></path><path fill="#0000ff" stroke="#0000ff" stroke-width="1.0" stroke-linecap="butt" d="m249.25333 241.36943l-4.7378387 -0.93559265l3.0279999 3.7621307z" fill-rule="evenodd"></path><path fill="#000000" fill-opacity="0.0" d="m439.7974 382.3315l-0.15863037 68.83484" fill-rule="evenodd"></path><path stroke="#0000ff" stroke-width="1.0" stroke-linejoin="round" stroke-linecap="butt" d="m439.79736 382.33154l-0.14477539 62.83481" fill-rule="evenodd"></path><path fill="#0000ff" stroke="#0000ff" stroke-width="1.0" stroke-linecap="butt" d="m438.0009 445.16254l1.6412659 4.5419006l1.6621704 -4.5342712z" fill-rule="evenodd"></path><path fill="#000000" fill-opacity="0.0" d="m425.61337 443.7048l0.085754395 -62.79599" fill-rule="evenodd"></path><path stroke="#0000ff" stroke-width="1.0" stroke-linejoin="round" stroke-linecap="butt" d="m425.61334 443.7048l0.0776062 -56.79596" fill-rule="evenodd"></path><path fill="#0000ff" stroke="#0000ff" stroke-width="1.0" stroke-linecap="butt" d="m427.34268 386.91107l-1.6455383 -4.540344l-1.6579285 4.535858z" fill-rule="evenodd"></path></g></svg>

